<?xml version="1.0" encoding="utf-8"?>
<?xml-stylesheet type="text/xsl" href="rss1.xsl"?>
<rss version="2.0" xmlns:atom="http://www.w3.org/2005/Atom" xmlns:content="http://purl.org/rss/1.0/modules/content/" xmlns:dc="http://purl.org/dc/elements/1.1/" xmlns:media="http://search.yahoo.com/mrss/">
<channel>
 <title>Getty</title>
 <link>http://www.gettyimg.com/</link>
 <atom:link href="http://www.gettyimg.com/" rel="self" type="application/rss+xml" />

 
                <item>
                <title><![CDATA[【UPSCALED】Madonna - Like A Virgin HD Remaster x265]]></title>
                <link><![CDATA[https://sharemania.us/threads/madonna-like-a-virgin-hd-remaster-x265.221540/]]></link>
                <description><![CDATA[<article>
<blockquote class="messageText SelectQuoteContainer ugc baseHtml">
<b>File name: </b>Madonna - Like A Virgin.mkv<br>
<b>File size:</b> 111 527 801 bite<br>
<b>Resolution:</b> 956x720<br>
<b>Duration:</b> 00:03:48<br>
<b>Sourse: </b>Master Clean (PAL)<br>
<img src="https://i.imgur.com/mfoOed5h.jpg" class="bbCodeImage LbImage" alt="[​IMG]" data-url="https://i.imgur.com/mfoOed5h.jpg" style=""> <br>
Another one remaster Madonna video in the best quality, that you can find) I'm not a fan of overscaling when they try to make 4k from DVD quality. It never looks good. So despite only 720p, the quality is better than other versions on this forum presented in full hd. So please rate and enjoy)<br>
<div class="ToggleTriggerAnchor bbCodeSpoilerContainer">
<button type="button" class="button bbCodeSpoilerButton ToggleTrigger Tooltip JsOnly" data-target="> .SpoilerTarget"><span>Spoiler: <span class="SpoilerTitle">Full size preview</span></span></button>
<div class="SpoilerTarget bbCodeSpoilerText"><img src="https://i.imgur.com/k84PgWx.jpg" class="bbCodeImage LbImage" alt="[​IMG]" data-url="https://i.imgur.com/k84PgWx.jpg" style=""><img src="https://i.imgur.com/bTvlc0h.jpg" class="bbCodeImage LbImage" alt="[​IMG]" data-url="https://i.imgur.com/bTvlc0h.jpg" style=""><img src="https://i.imgur.com/P0PTvu2.jpg" class="bbCodeImage LbImage" alt="[​IMG]" data-url="https://i.imgur.com/P0PTvu2.jpg" style=""><img src="https://i.imgur.com/gc8ewYx.jpg" class="bbCodeImage LbImage" alt="[​IMG]" data-url="https://i.imgur.com/gc8ewYx.jpg" style=""></div>
</div>
<div class="bbCodeBlock bbCodeVfcHH HiddenContent">
<div class="attribution type">Hidden Content:</div>
<blockquote>You must reply before you can see the hidden data contained here.</blockquote>
</div><b><span style="font-size: 22px">Other remastered Madonna videos in the best quality!</span></b><br>
<span style="font-size: 22px"><b><a href="https://sharemania.us/threads/madonna-like-a-prayer-hd-remaster-x265.220186/#post-4498070" class="internalLink">Madonna - Like A Prayer HD Remaster</a></b><br>
<b><a href="https://sharemania.us/threads/madonna-la-isla-bonita-remaster-x265.220226/" class="internalLink">Madonna - La Isla Bonita HD Remaster</a></b><br>
<span style="font-size: 22px"><b><a href="https://sharemania.us/threads/madonna-lucky-star-remaster-hd-x265.220423/" class="internalLink">Madonna - Lucky Star HD Remaster</a></b></span><br>
New videos very soon).<br>
<b>Check out my other videos in profile</b></span>
<div class="messageTextEndMarker">&nbsp;</div>
</blockquote>
</article>]]></description>
                <author><![CDATA[Rusikon24]]></author>
                </item>

                
                <item>
                <title><![CDATA[【Apple Music】WEB-RiP - Dj Sava - Te strig (feat. Misha &amp; Connect-R) (1080p)]]></title>
                <link><![CDATA[https://sharemania.us/threads/dj-sava-te-strig-feat-misha-connect-r-1080p.221541/]]></link>
                <description><![CDATA[<article>
<blockquote class="messageText SelectQuoteContainer ugc baseHtml">
<img src="https://i.imgur.com/bbr8uZZ.jpg" class="bbCodeImage LbImage" alt="[​IMG]" data-url="https://i.imgur.com/bbr8uZZ.jpg" style=""><br>
<br>
<div class="bbCodeBlock bbCodeCode">
<div class="type">Code:</div>
<pre>General
Complete name                  : C:\Users\asus\Desktop\Dj Sava - Te strig (feat. Misha &amp; Connect-R).mp4
Format                         : MPEG-4
Format profile                 : Base Media
Codec ID                       : isom (isom/iso2/avc1/mp41)
File size                      : 251 MiB
Duration                       : 3 min 28 s
Overall bit rate               : 10.1 Mb/s
Frame rate                     : 25.000 FPS
Movie name                     : Te strig (feat. Misha &amp; Connect-R)
Performer                      : Dj Sava
Genre                          : Dance
ContentType                    : Music Video
Recorded date                  : 2021-09-03 07:00:00 UTC
Writing application            : Lavf57.29.101
Copyright                      : ℗ 2015 Cat Music

Video
ID                             : 1
Format                         : AVC
Format/Info                    : Advanced Video Codec
Format profile                 : High@L4
Format settings                : CABAC / 5 Ref Frames
Format settings, CABAC         : Yes
Format settings, Reference fra : 5 frames
Codec ID                       : avc1
Codec ID/Info                  : Advanced Video Coding
Duration                       : 3 min 28 s
Bit rate                       : 9 833 kb/s
Width                          : 1 920 pixels
Height                         : 768 pixels
Display aspect ratio           : 2.500
Frame rate mode                : Constant
Frame rate                     : 25.000 FPS
Color space                    : YUV
Chroma subsampling             : 4:2:0
Bit depth                      : 8 bits
Scan type                      : Progressive
Bits/(Pixel*Frame)             : 0.267
Stream size                    : 244 MiB (97%)
Color range                    : Limited
Color primaries                : BT.709
Transfer characteristics       : BT.709
Matrix coefficients            : BT.709
Codec configuration box        : avcC

Audio
ID                             : 2
Format                         : AAC LC
Format/Info                    : Advanced Audio Codec Low Complexity
Codec ID                       : mp4a-40-2
Duration                       : 3 min 28 s
Bit rate mode                  : Constant
Bit rate                       : 265 kb/s
Channel(s)                     : 2 channels
Channel layout                 : L R
Sampling rate                  : 48.0 kHz
Frame rate                     : 46.875 FPS (1024 SPF)
Compression mode               : Lossy
Stream size                    : 6.53 MiB (3%)
Default                        : Yes
Alternate group                : 1

</pre>
</div>
<div class="bbCodeBlock bbCodeVfcHH HiddenContent">
<div class="attribution type">Hidden Content:</div>
<blockquote>You must either reply or click 'Like' to see the hidden information contained here.</blockquote>
</div>
<div class="messageTextEndMarker">&nbsp;</div>
</blockquote>
</article>]]></description>
                <author><![CDATA[vitalya3]]></author>
                </item>

                
                <item>
                <title><![CDATA[【Requests】[REQ AUD] - Billy Idol - Don't Stop EP 96/24 Flac]]></title>
                <link><![CDATA[https://sharemania.us/threads/billy-idol-dont-stop-ep-96-24-flac.221544/]]></link>
                <description><![CDATA[<article>
<blockquote class="messageText SelectQuoteContainer ugc baseHtml">
If anybody has this I would be highly greatful Thanks!<br>
<br>
<a href="https://www.prostudiomasters.com/album/page/13479" target="_blank" class="externalLink" rel="nofollow">https://www.prostudiomasters.com/album/page/13479</a>
<div class="messageTextEndMarker">&nbsp;</div>
</blockquote>
</article>]]></description>
                <author><![CDATA[Tiger0970]]></author>
                </item>

                
                <item>
                <title><![CDATA[【Apple Music】WEB-RiP - Marta Gałuszewska - That's Just Life (1080p)]]></title>
                <link><![CDATA[https://sharemania.us/threads/marta-ga%C5%82uszewska-thats-just-life-1080p.221543/]]></link>
                <description><![CDATA[<article>
<blockquote class="messageText SelectQuoteContainer ugc baseHtml">
<img src="https://i.imgur.com/CRsM1Vt.jpg" class="bbCodeImage LbImage" alt="[​IMG]" data-url="https://i.imgur.com/CRsM1Vt.jpg" style=""><br>
<br>
<div class="bbCodeBlock bbCodeCode">
<div class="type">Code:</div>
<pre>General
Complete name                  : C:\Users\asus\Desktop\Marta Gałuszewska - That's Just Life.mp4
Format                         : MPEG-4
Format profile                 : Base Media
Codec ID                       : isom (isom/iso2/avc1/mp41)
File size                      : 234 MiB
Duration                       : 3 min 15 s
Overall bit rate               : 10.0 Mb/s
Frame rate                     : 25.000 FPS
Movie name                     : That's Just Life
Performer                      : Marta Gałuszewska
Genre                          : Pop
ContentType                    : Music Video
Recorded date                  : 2019-03-29 07:00:00 UTC
Writing application            : Lavf57.29.101
Copyright                      : ℗ 2019 Universal Music Polska

Video
ID                             : 1
Format                         : AVC
Format/Info                    : Advanced Video Codec
Format profile                 : High@L4.1
Format settings                : CABAC / 5 Ref Frames
Format settings, CABAC         : Yes
Format settings, Reference fra : 5 frames
Codec ID                       : avc1
Codec ID/Info                  : Advanced Video Coding
Duration                       : 3 min 15 s
Bit rate                       : 9 769 kb/s
Width                          : 1 912 pixels
Height                         : 820 pixels
Display aspect ratio           : 2.35:1
Frame rate mode                : Constant
Frame rate                     : 25.000 FPS
Color space                    : YUV
Chroma subsampling             : 4:2:0
Bit depth                      : 8 bits
Scan type                      : Progressive
Bits/(Pixel*Frame)             : 0.249
Stream size                    : 228 MiB (97%)
Color range                    : Limited
Color primaries                : BT.709
Transfer characteristics       : BT.709
Matrix coefficients            : BT.709
Codec configuration box        : avcC

Audio
ID                             : 2
Format                         : AAC LC
Format/Info                    : Advanced Audio Codec Low Complexity
Codec ID                       : mp4a-40-2
Duration                       : 3 min 15 s
Bit rate mode                  : Constant
Bit rate                       : 256 kb/s
Channel(s)                     : 2 channels
Channel layout                 : L R
Sampling rate                  : 48.0 kHz
Frame rate                     : 46.875 FPS (1024 SPF)
Compression mode               : Lossy
Stream size                    : 5.97 MiB (3%)
Default                        : Yes
Alternate group                : 1

</pre>
</div>
<div class="bbCodeBlock bbCodeVfcHH HiddenContent">
<div class="attribution type">Hidden Content:</div>
<blockquote>You must either reply or click 'Like' to see the hidden information contained here.</blockquote>
</div>
<div class="messageTextEndMarker">&nbsp;</div>
</blockquote>
</article>]]></description>
                <author><![CDATA[vitalya3]]></author>
                </item>

                
                <item>
                <title><![CDATA[【Apple Music】WEB-RiP - Delia feat. Kaira - Pe aripi de vant (by KAZIBO) (1080p)]]></title>
                <link><![CDATA[https://sharemania.us/threads/delia-feat-kaira-pe-aripi-de-vant-by-kazibo-1080p.221539/]]></link>
                <description><![CDATA[<article>
<blockquote class="messageText SelectQuoteContainer ugc baseHtml">
<img src="https://i.imgur.com/TdaAJOl.jpg" class="bbCodeImage LbImage" alt="[​IMG]" data-url="https://i.imgur.com/TdaAJOl.jpg" style=""><br>
<br>
<div class="bbCodeBlock bbCodeCode">
<div class="type">Code:</div>
<pre>General
Complete name                  : C:\Users\asus\Desktop\Delia feat. Kaira - Pe aripi de vant (by KAZIBO).mp4
Format                         : MPEG-4
Format profile                 : Base Media
Codec ID                       : isom (isom/iso2/avc1/mp41)
File size                      : 200 MiB
Duration                       : 4 min 5 s
Overall bit rate               : 6 839 kb/s
Frame rate                     : 25.000 FPS
Movie name                     : Pe aripi de vant (feat. Kaira)
Performer                      : Delia &amp; Kaira
Genre                          : Pop
ContentType                    : Music Video
Recorded date                  : 2021-09-10 07:00:00 UTC
Writing application            : Lavf57.29.101
Copyright                      : ℗ 2015 Cat Music

Video
ID                             : 1
Format                         : AVC
Format/Info                    : Advanced Video Codec
Format profile                 : High@L4
Format settings                : CABAC / 5 Ref Frames
Format settings, CABAC         : Yes
Format settings, Reference fra : 5 frames
Codec ID                       : avc1
Codec ID/Info                  : Advanced Video Coding
Duration                       : 4 min 5 s
Bit rate                       : 6 573 kb/s
Width                          : 1 920 pixels
Height                         : 816 pixels
Display aspect ratio           : 2.35:1
Frame rate mode                : Constant
Frame rate                     : 25.000 FPS
Color space                    : YUV
Chroma subsampling             : 4:2:0
Bit depth                      : 8 bits
Scan type                      : Progressive
Bits/(Pixel*Frame)             : 0.168
Stream size                    : 192 MiB (96%)
Color range                    : Limited
Color primaries                : BT.709
Transfer characteristics       : BT.709
Matrix coefficients            : BT.709
Codec configuration box        : avcC

Audio
ID                             : 2
Format                         : AAC LC
Format/Info                    : Advanced Audio Codec Low Complexity
Codec ID                       : mp4a-40-2
Duration                       : 4 min 5 s
Bit rate mode                  : Constant
Bit rate                       : 265 kb/s
Channel(s)                     : 2 channels
Channel layout                 : L R
Sampling rate                  : 48.0 kHz
Frame rate                     : 46.875 FPS (1024 SPF)
Compression mode               : Lossy
Stream size                    : 7.64 MiB (4%)
Default                        : Yes
Alternate group                : 1

</pre>
</div>
<div class="bbCodeBlock bbCodeVfcHH HiddenContent">
<div class="attribution type">Hidden Content:</div>
<blockquote>You must either reply or click 'Like' to see the hidden information contained here.</blockquote>
</div>
<div class="messageTextEndMarker">&nbsp;</div>
</blockquote>
</article>]]></description>
                <author><![CDATA[vitalya3]]></author>
                </item>

                
                <item>
                <title><![CDATA[【Apple Music】WEB-RiP - Fergie - Hungry ft. Rick Ross (1080p)]]></title>
                <link><![CDATA[https://sharemania.us/threads/fergie-hungry-ft-rick-ross-1080p.221542/]]></link>
                <description><![CDATA[<article>
<blockquote class="messageText SelectQuoteContainer ugc baseHtml">
<img src="https://i.imgur.com/hl8LjvW.jpg" class="bbCodeImage LbImage" alt="[​IMG]" data-url="https://i.imgur.com/hl8LjvW.jpg" style=""><br>
<br>
<div class="bbCodeBlock bbCodeCode">
<div class="type">Code:</div>
<pre>General
Complete name                  : C:\Users\asus\Desktop\Fergie - Hungry ft. Rick Ross.mp4
Format                         : MPEG-4
Format profile                 : Base Media
Codec ID                       : isom (isom/iso2/avc1/mp41)
File size                      : 167 MiB
Duration                       : 3 min 21 s
Overall bit rate               : 6 969 kb/s
Frame rate                     : 23.976 FPS
Movie name                     : Hungry (feat. Rick Ross)
Album                          : Double Dutchess (Deluxe Visual Experience)
Album/Performer                : Fergie
Part/Position                  : 1
Part/Total                     : 1
Track name/Position            : 14
Track name/Total               : 25
Performer                      : Fergie
Genre                          : Pop
ContentType                    : Music Video
Recorded date                  : 2017-09-22 07:00:00 UTC
Writing application            : Lavf57.29.101
Copyright                      : ℗ © 2017 Retrofuture Productions, Inc. under exclusive license to BMG Rights Management (US) LLC

Video
ID                             : 1
Format                         : AVC
Format/Info                    : Advanced Video Codec
Format profile                 : High@L4
Format settings                : CABAC / 5 Ref Frames
Format settings, CABAC         : Yes
Format settings, Reference fra : 5 frames
Codec ID                       : avc1
Codec ID/Info                  : Advanced Video Coding
Duration                       : 3 min 21 s
Bit rate                       : 6 717 kb/s
Width                          : 1 920 pixels
Height                         : 800 pixels
Display aspect ratio           : 2.40:1
Frame rate mode                : Constant
Frame rate                     : 23.976 (24000/1001) FPS
Color space                    : YUV
Chroma subsampling             : 4:2:0
Bit depth                      : 8 bits
Scan type                      : Progressive
Bits/(Pixel*Frame)             : 0.182
Stream size                    : 161 MiB (96%)
Color range                    : Limited
Color primaries                : BT.709
Transfer characteristics       : BT.709
Matrix coefficients            : BT.709
Codec configuration box        : avcC

Audio
ID                             : 2
Format                         : AAC LC
Format/Info                    : Advanced Audio Codec Low Complexity
Codec ID                       : mp4a-40-2
Duration                       : 3 min 21 s
Bit rate mode                  : Constant
Bit rate                       : 249 kb/s
Channel(s)                     : 2 channels
Channel layout                 : L R
Sampling rate                  : 48.0 kHz
Frame rate                     : 46.875 FPS (1024 SPF)
Compression mode               : Lossy
Stream size                    : 5.97 MiB (4%)
Default                        : Yes
Alternate group                : 1

</pre>
</div>
<div class="bbCodeBlock bbCodeVfcHH HiddenContent">
<div class="attribution type">Hidden Content:</div>
<blockquote>You must either reply or click 'Like' to see the hidden information contained here.</blockquote>
</div>
<div class="messageTextEndMarker">&nbsp;</div>
</blockquote>
</article>]]></description>
                <author><![CDATA[vitalya3]]></author>
                </item>

                </channel></rss>